<?xml version="1.0" encoding="UTF-8" standalone="no"?>
<svg
   xmlns:dc="http://purl.org/dc/elements/1.1/"
   xmlns:cc="http://creativecommons.org/ns#"
   xmlns:rdf="http://www.w3.org/1999/02/22-rdf-syntax-ns#"
   xmlns:svg="http://www.w3.org/2000/svg"
   xmlns="http://www.w3.org/2000/svg"
   xmlns:sodipodi="http://sodipodi.sourceforge.net/DTD/sodipodi-0.dtd"
   xmlns:inkscape="http://www.inkscape.org/namespaces/inkscape"
   id="Layer_1"
   data-name="Layer 1"
   viewBox="0 0 100 100"
   version="1.1"
   sodipodi:docname="sro_logo.svg"
   width="100"
   height="100"
   inkscape:version="0.92.4 5da689c313, 2019-01-14">
  <metadata
     id="metadata124">
    <rdf:RDF>
      <cc:Work
         rdf:about="">
        <dc:format>image/svg+xml</dc:format>
        <dc:type
           rdf:resource="http://purl.org/dc/dcmitype/StillImage" />
        <dc:title>SRO LOGO</dc:title>
      </cc:Work>
    </rdf:RDF>
  </metadata>
  <sodipodi:namedview
     pagecolor="#ffffff"
     bordercolor="#666666"
     borderopacity="1"
     objecttolerance="10"
     gridtolerance="10"
     guidetolerance="10"
     inkscape:pageopacity="0"
     inkscape:pageshadow="2"
     inkscape:window-width="1916"
     inkscape:window-height="1041"
     id="namedview122"
     showgrid="false"
     fit-margin-top="0"
     fit-margin-left="0"
     fit-margin-right="0"
     fit-margin-bottom="0"
     inkscape:zoom="5.1576429"
     inkscape:cx="52.132757"
     inkscape:cy="50"
     inkscape:window-x="0"
     inkscape:window-y="18"
     inkscape:window-maximized="0"
     inkscape:current-layer="Layer_1" />
  <defs
     id="defs93">
    <style
       id="style86">.cls-1{fill:url(#linear-gradient);}.cls-2{fill:#fff;}</style>
    <linearGradient
       id="linear-gradient"
       x1="43.25"
       y1="-36.200001"
       x2="245.06"
       y2="165.60001"
       gradientUnits="userSpaceOnUse"
       gradientTransform="matrix(0.3468489,0,0,0.77279757,3.2207031e-6,5.1757812e-8)">
      <stop
         offset="0"
         stop-color="#3d8fee"
         id="stop88" />
      <stop
         offset="1"
         stop-color="#45d3ff"
         id="stop90" />
    </linearGradient>
  </defs>
  <title
     id="title95">SRO LOGO</title>
  <rect
     class="cls-1"
     width="100"
     height="100"
     rx="4.1621866"
     id="rect97"
     style="fill:url(#linear-gradient);stroke-width:0.51772964"
     x="0"
     y="0" />
  <g
     id="g134"
     transform="translate(-6.5271118,-11.315)">
    <rect
       id="rect105"
       height="11.09"
       width="58.560001"
       y="83.900002"
       x="18.209999"
       class="cls-2"
       style="fill:#ffffff" />
    <path
       id="path107"
       transform="translate(0.24,0.17)"
       d="m 86.65,48.35 c -8,-0.25 -10.56,-0.07 -15,-0.9 l -0.27,2 h -2 c 0.29,4.46 -0.19,7 -0.91,14.95 3.07,5.22 10.83,10.08 11.82,9.29 l 1.78,-2.37 c -4,-3 -6.55,-5 -9.38,-9.39 0.27,-5.46 0.39,-7.63 0.59,-10.39 2.77,0.13 4.94,0.27 10.39,0.66 4,3.34 5.72,6.09 8.24,10.4 l 2.56,-1.47 C 95.39,60.28 91.45,52 86.65,48.35 Z"
       class="cls-2"
       inkscape:connector-curvature="0"
       style="fill:#ffffff" />
    <circle
       id="circle109"
       r="7.5700002"
       cy="50.349998"
       cx="70.970001"
       class="cls-2"
       style="fill:#ffffff" />
    <circle
       id="circle111"
       r="7.5700002"
       cy="35.209999"
       cx="39.91"
       class="cls-2"
       style="fill:#ffffff" />
    <rect
       id="rect113"
       transform="rotate(-62.4,52.873711,41.071297)"
       height="40.68"
       width="8"
       y="20.84"
       x="48.610001"
       class="cls-2"
       style="fill:#ffffff" />
    <rect
       id="rect115"
       transform="rotate(27.6,31.864983,48.357588)"
       height="24.23"
       width="8.6400003"
       y="35.66"
       x="27.780001"
       class="cls-2"
       style="fill:#ffffff" />
    <circle
       id="circle117"
       r="7.5700002"
       cy="60.799999"
       cx="26.129999"
       class="cls-2"
       style="fill:#ffffff" />
    <rect
       id="rect119"
       transform="rotate(-39.81,37.654445,74.158257)"
       height="38.119999"
       width="14.84"
       y="55.349998"
       x="29.870001"
       class="cls-2"
       style="fill:#ffffff" />
  </g>
</svg>
